solid OpenSCAD_Model
  facet normal 1 -0 0
    outer loop
      vertex 106 46 3
      vertex 106 64 0
      vertex 106 64 3
    endloop
  endfacet
  facet normal 1 0 0
    outer loop
      vertex 106 64 0
      vertex 106 46 3
      vertex 106 46 0
    endloop
  endfacet
  facet normal 0 0 1
    outer loop
      vertex 106 64 3
      vertex 101.957 60.6526 3
      vertex 102 60 3
    endloop
  endfacet
  facet normal 0 0 1
    outer loop
      vertex 103.261 69.5535 3
      vertex 101.83 61.2941 3
      vertex 101.957 60.6526 3
    endloop
  endfacet
  facet normal 0 0 1
    outer loop
      vertex 99.5 64.3301 3
      vertex 102.5 70.0622 3
      vertex 101.679 70.4672 3
    endloop
  endfacet
  facet normal 0 0 1
    outer loop
      vertex 103.261 69.5535 3
      vertex 101.619 61.9134 3
      vertex 101.83 61.2941 3
    endloop
  endfacet
  facet normal 0 0 1
    outer loop
      vertex 103.261 69.5535 3
      vertex 101.33 62.5 3
      vertex 101.619 61.9134 3
    endloop
  endfacet
  facet normal 0 0 1
    outer loop
      vertex 103.261 69.5535 3
      vertex 100.967 63.0438 3
      vertex 101.33 62.5 3
    endloop
  endfacet
  facet normal 0 0 1
    outer loop
      vertex 98.9134 64.6194 3
      vertex 101.679 70.4672 3
      vertex 100.812 70.7615 3
    endloop
  endfacet
  facet normal 0 0 1
    outer loop
      vertex 103.261 69.5535 3
      vertex 100.536 63.5355 3
      vertex 100.967 63.0438 3
    endloop
  endfacet
  facet normal 0 0 1
    outer loop
      vertex 103.261 69.5535 3
      vertex 100.044 63.9668 3
      vertex 100.536 63.5355 3
    endloop
  endfacet
  facet normal 0 0 1
    outer loop
      vertex 98.9134 64.6194 3
      vertex 100.812 70.7615 3
      vertex 99.9137 70.9401 3
    endloop
  endfacet
  facet normal 0 0 1
    outer loop
      vertex 103.261 69.5535 3
      vertex 99.5 64.3301 3
      vertex 100.044 63.9668 3
    endloop
  endfacet
  facet normal 0 0 1
    outer loop
      vertex 98.2941 64.8296 3
      vertex 99.9137 70.9401 3
      vertex 99 71 3
    endloop
  endfacet
  facet normal 0 0 1
    outer loop
      vertex 101.679 70.4672 3
      vertex 98.9134 64.6194 3
      vertex 99.5 64.3301 3
    endloop
  endfacet
  facet normal 0 0 1
    outer loop
      vertex 99.9137 70.9401 3
      vertex 98.2941 64.8296 3
      vertex 98.9134 64.6194 3
    endloop
  endfacet
  facet normal 0 0 1
    outer loop
      vertex 99 71 3
      vertex 97.6526 64.9572 3
      vertex 98.2941 64.8296 3
    endloop
  endfacet
  facet normal 0 0 1
    outer loop
      vertex 99 71 3
      vertex 97 65 3
      vertex 97.6526 64.9572 3
    endloop
  endfacet
  facet normal -0 0 1
    outer loop
      vertex 81 71 3
      vertex 97 65 3
      vertex 99 71 3
    endloop
  endfacet
  facet normal 0 0 1
    outer loop
      vertex 97 65 3
      vertex 81 71 3
      vertex 81 65 3
    endloop
  endfacet
  facet normal 0 0 1
    outer loop
      vertex 101.957 60.6526 3
      vertex 106 64 3
      vertex 105.94 64.9137 3
    endloop
  endfacet
  facet normal 0 0 1
    outer loop
      vertex 101.957 60.6526 3
      vertex 105.94 64.9137 3
      vertex 105.761 65.8117 3
    endloop
  endfacet
  facet normal 0 0 1
    outer loop
      vertex 101.957 60.6526 3
      vertex 105.761 65.8117 3
      vertex 105.467 66.6788 3
    endloop
  endfacet
  facet normal 0 0 1
    outer loop
      vertex 101.957 60.6526 3
      vertex 105.467 66.6788 3
      vertex 105.062 67.5 3
    endloop
  endfacet
  facet normal 0 0 1
    outer loop
      vertex 101.957 60.6526 3
      vertex 105.062 67.5 3
      vertex 104.553 68.2613 3
    endloop
  endfacet
  facet normal 0 0 1
    outer loop
      vertex 101.957 60.6526 3
      vertex 104.553 68.2613 3
      vertex 103.95 68.9498 3
    endloop
  endfacet
  facet normal 0 0 1
    outer loop
      vertex 101.957 60.6526 3
      vertex 103.95 68.9498 3
      vertex 103.261 69.5535 3
    endloop
  endfacet
  facet normal 0 0 1
    outer loop
      vertex 99.5 64.3301 3
      vertex 103.261 69.5535 3
      vertex 102.5 70.0622 3
    endloop
  endfacet
  facet normal 0 0 1
    outer loop
      vertex 106 64 3
      vertex 102 60 3
      vertex 106 46 3
    endloop
  endfacet
  facet normal 0 0 1
    outer loop
      vertex 106 46 3
      vertex 102 60 3
      vertex 102 46 3
    endloop
  endfacet
  facet normal 0 0 1
    outer loop
      vertex 99 59 3
      vertex 96.9743 57.2916 3
      vertex 97 56.9 3
    endloop
  endfacet
  facet normal 0 0 1
    outer loop
      vertex 97.5 61.5981 3
      vertex 96.8978 57.6765 3
      vertex 96.9743 57.2916 3
    endloop
  endfacet
  facet normal 0 0 1
    outer loop
      vertex 95.8263 59.2801 3
      vertex 97.1481 61.7716 3
      vertex 96.7765 61.8978 3
    endloop
  endfacet
  facet normal 0 0 1
    outer loop
      vertex 97.5 61.5981 3
      vertex 96.7716 58.048 3
      vertex 96.8978 57.6765 3
    endloop
  endfacet
  facet normal 0 0 1
    outer loop
      vertex 97.5 61.5981 3
      vertex 96.5981 58.4 3
      vertex 96.7716 58.048 3
    endloop
  endfacet
  facet normal 0 0 1
    outer loop
      vertex 95.5 59.4981 3
      vertex 96.7765 61.8978 3
      vertex 96.3916 61.9743 3
    endloop
  endfacet
  facet normal 0 0 1
    outer loop
      vertex 97.5 61.5981 3
      vertex 96.3801 58.7263 3
      vertex 96.5981 58.4 3
    endloop
  endfacet
  facet normal 0 0 1
    outer loop
      vertex 97.5 61.5981 3
      vertex 96.1213 59.0213 3
      vertex 96.3801 58.7263 3
    endloop
  endfacet
  facet normal 0 0 1
    outer loop
      vertex 95.5 59.4981 3
      vertex 96.3916 61.9743 3
      vertex 96 62 3
    endloop
  endfacet
  facet normal 0 0 1
    outer loop
      vertex 97.5 61.5981 3
      vertex 95.8263 59.2801 3
      vertex 96.1213 59.0213 3
    endloop
  endfacet
  facet normal 0 0 1
    outer loop
      vertex 96.7765 61.8978 3
      vertex 95.5 59.4981 3
      vertex 95.8263 59.2801 3
    endloop
  endfacet
  facet normal 0 0 1
    outer loop
      vertex 96 62 3
      vertex 95.1481 59.6716 3
      vertex 95.5 59.4981 3
    endloop
  endfacet
  facet normal 0 0 1
    outer loop
      vertex 96 62 3
      vertex 94.7765 59.7978 3
      vertex 95.1481 59.6716 3
    endloop
  endfacet
  facet normal 0 0 1
    outer loop
      vertex 96 62 3
      vertex 94.3916 59.8743 3
      vertex 94.7765 59.7978 3
    endloop
  endfacet
  facet normal 0 0 1
    outer loop
      vertex 96 62 3
      vertex 94 59.9 3
      vertex 94.3916 59.8743 3
    endloop
  endfacet
  facet normal -0 0 1
    outer loop
      vertex 81 62 3
      vertex 94 59.9 3
      vertex 96 62 3
    endloop
  endfacet
  facet normal 0 0 1
    outer loop
      vertex 94 59.9 3
      vertex 81 62 3
      vertex 81 59.9 3
    endloop
  endfacet
  facet normal 0 0 1
    outer loop
      vertex 96.9743 57.2916 3
      vertex 99 59 3
      vertex 98.9743 59.3916 3
    endloop
  endfacet
  facet normal 0 0 1
    outer loop
      vertex 96.9743 57.2916 3
      vertex 98.9743 59.3916 3
      vertex 98.8978 59.7765 3
    endloop
  endfacet
  facet normal 0 0 1
    outer loop
      vertex 96.9743 57.2916 3
      vertex 98.8978 59.7765 3
      vertex 98.7716 60.1481 3
    endloop
  endfacet
  facet normal 0 0 1
    outer loop
      vertex 96.9743 57.2916 3
      vertex 98.7716 60.1481 3
      vertex 98.5981 60.5 3
    endloop
  endfacet
  facet normal 0 0 1
    outer loop
      vertex 96.9743 57.2916 3
      vertex 98.5981 60.5 3
      vertex 98.3801 60.8263 3
    endloop
  endfacet
  facet normal 0 0 1
    outer loop
      vertex 96.9743 57.2916 3
      vertex 98.3801 60.8263 3
      vertex 98.1213 61.1213 3
    endloop
  endfacet
  facet normal 0 0 1
    outer loop
      vertex 96.9743 57.2916 3
      vertex 98.1213 61.1213 3
      vertex 97.8263 61.3801 3
    endloop
  endfacet
  facet normal 0 0 1
    outer loop
      vertex 96.9743 57.2916 3
      vertex 97.8263 61.3801 3
      vertex 97.5 61.5981 3
    endloop
  endfacet
  facet normal 0 0 1
    outer loop
      vertex 95.8263 59.2801 3
      vertex 97.5 61.5981 3
      vertex 97.1481 61.7716 3
    endloop
  endfacet
  facet normal 0 0 1
    outer loop
      vertex 99 59 3
      vertex 97 56.9 3
      vertex 99 46 3
    endloop
  endfacet
  facet normal 0 0 1
    outer loop
      vertex 99 46 3
      vertex 97 56.9 3
      vertex 97 46 3
    endloop
  endfacet
  facet normal 0.947043 0.321106 0
    outer loop
      vertex 105.761 65.8117 3
      vertex 105.467 66.6788 0
      vertex 105.467 66.6788 3
    endloop
  endfacet
  facet normal 0.947043 0.321106 0
    outer loop
      vertex 105.467 66.6788 0
      vertex 105.761 65.8117 3
      vertex 105.761 65.8117 0
    endloop
  endfacet
  facet normal 0 1 -0
    outer loop
      vertex 99 71 0
      vertex 81 71 3
      vertex 99 71 3
    endloop
  endfacet
  facet normal 0 1 0
    outer loop
      vertex 81 71 3
      vertex 99 71 0
      vertex 81 71 0
    endloop
  endfacet
  facet normal 0.442401 0.896817 -0
    outer loop
      vertex 102.5 70.0622 0
      vertex 101.679 70.4672 3
      vertex 102.5 70.0622 3
    endloop
  endfacet
  facet normal 0.442401 0.896817 0
    outer loop
      vertex 101.679 70.4672 3
      vertex 102.5 70.0622 0
      vertex 101.679 70.4672 0
    endloop
  endfacet
  facet normal 0.0654172 0.997858 -0
    outer loop
      vertex 99.9137 70.9401 0
      vertex 99 71 3
      vertex 99.9137 70.9401 3
    endloop
  endfacet
  facet normal 0.0654172 0.997858 0
    outer loop
      vertex 99 71 3
      vertex 99.9137 70.9401 0
      vertex 99 71 0
    endloop
  endfacet
  facet normal 0.752272 0.658853 0
    outer loop
      vertex 104.553 68.2613 3
      vertex 103.95 68.9498 0
      vertex 103.95 68.9498 3
    endloop
  endfacet
  facet normal 0.752272 0.658853 0
    outer loop
      vertex 103.95 68.9498 0
      vertex 104.553 68.2613 3
      vertex 104.553 68.2613 0
    endloop
  endfacet
  facet normal 0.321433 0.946932 -0
    outer loop
      vertex 101.679 70.4672 0
      vertex 100.812 70.7615 3
      vertex 101.679 70.4672 3
    endloop
  endfacet
  facet normal 0.321433 0.946932 0
    outer loop
      vertex 100.812 70.7615 3
      vertex 101.679 70.4672 0
      vertex 100.812 70.7615 0
    endloop
  endfacet
  facet normal 0 0 -1
    outer loop
      vertex 81 46 0
      vertex 106 64 0
      vertex 106 46 0
    endloop
  endfacet
  facet normal 0 -0 -1
    outer loop
      vertex 99 71 0
      vertex 106 64 0
      vertex 81 46 0
    endloop
  endfacet
  facet normal 0 0 -1
    outer loop
      vertex 106 64 0
      vertex 99 71 0
      vertex 105.94 64.9137 0
    endloop
  endfacet
  facet normal 0 0 -1
    outer loop
      vertex 105.761 65.8117 0
      vertex 99 71 0
      vertex 105.467 66.6788 0
    endloop
  endfacet
  facet normal 0 0 -1
    outer loop
      vertex 105.467 66.6788 0
      vertex 99 71 0
      vertex 105.062 67.5 0
    endloop
  endfacet
  facet normal 0 0 -1
    outer loop
      vertex 105.062 67.5 0
      vertex 99 71 0
      vertex 104.553 68.2613 0
    endloop
  endfacet
  facet normal 0 0 -1
    outer loop
      vertex 104.553 68.2613 0
      vertex 99 71 0
      vertex 103.95 68.9498 0
    endloop
  endfacet
  facet normal 0 0 -1
    outer loop
      vertex 103.95 68.9498 0
      vertex 99 71 0
      vertex 103.261 69.5535 0
    endloop
  endfacet
  facet normal 0 0 -1
    outer loop
      vertex 103.261 69.5535 0
      vertex 99 71 0
      vertex 102.5 70.0622 0
    endloop
  endfacet
  facet normal 0 0 -1
    outer loop
      vertex 102.5 70.0622 0
      vertex 99 71 0
      vertex 101.679 70.4672 0
    endloop
  endfacet
  facet normal 0 0 -1
    outer loop
      vertex 101.679 70.4672 0
      vertex 99 71 0
      vertex 100.812 70.7615 0
    endloop
  endfacet
  facet normal 0 0 -1
    outer loop
      vertex 100.812 70.7615 0
      vertex 99 71 0
      vertex 99.9137 70.9401 0
    endloop
  endfacet
  facet normal 0 0 -1
    outer loop
      vertex 105.94 64.9137 0
      vertex 99 71 0
      vertex 105.761 65.8117 0
    endloop
  endfacet
  facet normal -0 0 -1
    outer loop
      vertex 99 71 0
      vertex 81 46 0
      vertex 81 71 0
    endloop
  endfacet
  facet normal 0.997851 0.0655259 0
    outer loop
      vertex 106 64 3
      vertex 105.94 64.9137 0
      vertex 105.94 64.9137 3
    endloop
  endfacet
  facet normal 0.997851 0.0655259 0
    outer loop
      vertex 105.94 64.9137 0
      vertex 106 64 3
      vertex 106 64 0
    endloop
  endfacet
  facet normal 0.195003 0.980803 -0
    outer loop
      vertex 100.812 70.7615 0
      vertex 99.9137 70.9401 3
      vertex 100.812 70.7615 3
    endloop
  endfacet
  facet normal 0.195003 0.980803 0
    outer loop
      vertex 99.9137 70.9401 3
      vertex 100.812 70.7615 0
      vertex 99.9137 70.9401 0
    endloop
  endfacet
  facet normal 0.555733 0.831361 -0
    outer loop
      vertex 103.261 69.5535 0
      vertex 102.5 70.0622 3
      vertex 103.261 69.5535 3
    endloop
  endfacet
  facet normal 0.555733 0.831361 0
    outer loop
      vertex 102.5 70.0622 3
      vertex 103.261 69.5535 0
      vertex 102.5 70.0622 0
    endloop
  endfacet
  facet normal 0.980706 0.195486 0
    outer loop
      vertex 105.94 64.9137 3
      vertex 105.761 65.8117 0
      vertex 105.761 65.8117 3
    endloop
  endfacet
  facet normal 0.980706 0.195486 0
    outer loop
      vertex 105.761 65.8117 0
      vertex 105.94 64.9137 3
      vertex 105.94 64.9137 0
    endloop
  endfacet
  facet normal 0.89686 0.442314 0
    outer loop
      vertex 105.467 66.6788 3
      vertex 105.062 67.5 0
      vertex 105.062 67.5 3
    endloop
  endfacet
  facet normal 0.89686 0.442314 0
    outer loop
      vertex 105.062 67.5 0
      vertex 105.467 66.6788 3
      vertex 105.467 66.6788 0
    endloop
  endfacet
  facet normal 0.659015 0.75213 -0
    outer loop
      vertex 103.95 68.9498 0
      vertex 103.261 69.5535 3
      vertex 103.95 68.9498 3
    endloop
  endfacet
  facet normal 0.659015 0.75213 0
    outer loop
      vertex 103.261 69.5535 3
      vertex 103.95 68.9498 0
      vertex 103.261 69.5535 0
    endloop
  endfacet
  facet normal 0.83131 0.555808 0
    outer loop
      vertex 105.062 67.5 3
      vertex 104.553 68.2613 0
      vertex 104.553 68.2613 3
    endloop
  endfacet
  facet normal 0.83131 0.555808 0
    outer loop
      vertex 104.553 68.2613 0
      vertex 105.062 67.5 3
      vertex 105.062 67.5 0
    endloop
  endfacet
  facet normal -0.442211 -0.896911 0
    outer loop
      vertex 95.1481 59.6716 1.3
      vertex 95.5 59.4981 3
      vertex 95.1481 59.6716 3
    endloop
  endfacet
  facet normal -0.442211 -0.896911 -0
    outer loop
      vertex 95.5 59.4981 3
      vertex 95.1481 59.6716 1.3
      vertex 95.5 59.4981 1.3
    endloop
  endfacet
  facet normal 0 -1 0
    outer loop
      vertex 81 59.9 1.3
      vertex 94 59.9 3
      vertex 81 59.9 3
    endloop
  endfacet
  facet normal 0 -1 -0
    outer loop
      vertex 94 59.9 3
      vertex 81 59.9 1.3
      vertex 94 59.9 1.3
    endloop
  endfacet
  facet normal -1 0 0
    outer loop
      vertex 97 46 1.3
      vertex 97 56.9 3
      vertex 97 56.9 1.3
    endloop
  endfacet
  facet normal -1 -0 0
    outer loop
      vertex 97 56.9 3
      vertex 97 46 1.3
      vertex 97 46 3
    endloop
  endfacet
  facet normal -0.321574 -0.946885 0
    outer loop
      vertex 94.7765 59.7978 1.3
      vertex 95.1481 59.6716 3
      vertex 94.7765 59.7978 3
    endloop
  endfacet
  facet normal -0.321574 -0.946885 -0
    outer loop
      vertex 95.1481 59.6716 3
      vertex 94.7765 59.7978 1.3
      vertex 95.1481 59.6716 1.3
    endloop
  endfacet
  facet normal -0.0654873 -0.997853 0
    outer loop
      vertex 94 59.9 1.3
      vertex 94.3916 59.8743 3
      vertex 94 59.9 3
    endloop
  endfacet
  facet normal -0.0654873 -0.997853 -0
    outer loop
      vertex 94.3916 59.8743 3
      vertex 94 59.9 1.3
      vertex 94.3916 59.8743 1.3
    endloop
  endfacet
  facet normal -0.19494 -0.980815 0
    outer loop
      vertex 94.3916 59.8743 1.3
      vertex 94.7765 59.7978 3
      vertex 94.3916 59.8743 3
    endloop
  endfacet
  facet normal -0.19494 -0.980815 -0
    outer loop
      vertex 94.7765 59.7978 3
      vertex 94.3916 59.8743 1.3
      vertex 94.7765 59.7978 1.3
    endloop
  endfacet
  facet normal 0 0 1
    outer loop
      vertex 94 59.9 1.3
      vertex 97 56.9 1.3
      vertex 96.9743 57.2916 1.3
    endloop
  endfacet
  facet normal 0 0 1
    outer loop
      vertex 94 59.9 1.3
      vertex 96.9743 57.2916 1.3
      vertex 96.8978 57.6765 1.3
    endloop
  endfacet
  facet normal 0 0 1
    outer loop
      vertex 94 59.9 1.3
      vertex 96.8978 57.6765 1.3
      vertex 96.7716 58.048 1.3
    endloop
  endfacet
  facet normal 0 0 1
    outer loop
      vertex 94 59.9 1.3
      vertex 96.7716 58.048 1.3
      vertex 96.5981 58.4 1.3
    endloop
  endfacet
  facet normal 0 0 1
    outer loop
      vertex 94 59.9 1.3
      vertex 96.5981 58.4 1.3
      vertex 96.3801 58.7263 1.3
    endloop
  endfacet
  facet normal 0 0 1
    outer loop
      vertex 94 59.9 1.3
      vertex 96.3801 58.7263 1.3
      vertex 96.1213 59.0213 1.3
    endloop
  endfacet
  facet normal 0 0 1
    outer loop
      vertex 94 59.9 1.3
      vertex 96.1213 59.0213 1.3
      vertex 95.8263 59.2801 1.3
    endloop
  endfacet
  facet normal 0 0 1
    outer loop
      vertex 94 59.9 1.3
      vertex 95.8263 59.2801 1.3
      vertex 95.5 59.4981 1.3
    endloop
  endfacet
  facet normal 0 0 1
    outer loop
      vertex 94 59.9 1.3
      vertex 95.5 59.4981 1.3
      vertex 95.1481 59.6716 1.3
    endloop
  endfacet
  facet normal 0 0 1
    outer loop
      vertex 94 59.9 1.3
      vertex 95.1481 59.6716 1.3
      vertex 94.7765 59.7978 1.3
    endloop
  endfacet
  facet normal 0 0 1
    outer loop
      vertex 94 59.9 1.3
      vertex 94.7765 59.7978 1.3
      vertex 94.3916 59.8743 1.3
    endloop
  endfacet
  facet normal 0 0 1
    outer loop
      vertex 81 46 1.3
      vertex 97 56.9 1.3
      vertex 94 59.9 1.3
    endloop
  endfacet
  facet normal 0 0 1
    outer loop
      vertex 81 46 1.3
      vertex 94 59.9 1.3
      vertex 81 59.9 1.3
    endloop
  endfacet
  facet normal 0 0 1
    outer loop
      vertex 97 56.9 1.3
      vertex 81 46 1.3
      vertex 97 46 1.3
    endloop
  endfacet
  facet normal -0.896961 -0.44211 0
    outer loop
      vertex 96.7716 58.048 1.3
      vertex 96.5981 58.4 3
      vertex 96.5981 58.4 1.3
    endloop
  endfacet
  facet normal -0.896961 -0.44211 0
    outer loop
      vertex 96.5981 58.4 3
      vertex 96.7716 58.048 1.3
      vertex 96.7716 58.048 3
    endloop
  endfacet
  facet normal -0.980815 -0.19494 0
    outer loop
      vertex 96.9743 57.2916 1.3
      vertex 96.8978 57.6765 3
      vertex 96.8978 57.6765 1.3
    endloop
  endfacet
  facet normal -0.980815 -0.19494 0
    outer loop
      vertex 96.8978 57.6765 3
      vertex 96.9743 57.2916 1.3
      vertex 96.9743 57.2916 3
    endloop
  endfacet
  facet normal -0.946858 -0.321651 0
    outer loop
      vertex 96.8978 57.6765 1.3
      vertex 96.7716 58.048 3
      vertex 96.7716 58.048 1.3
    endloop
  endfacet
  facet normal -0.946858 -0.321651 0
    outer loop
      vertex 96.7716 58.048 3
      vertex 96.8978 57.6765 1.3
      vertex 96.8978 57.6765 3
    endloop
  endfacet
  facet normal -0.997853 -0.0654873 0
    outer loop
      vertex 97 56.9 1.3
      vertex 96.9743 57.2916 3
      vertex 96.9743 57.2916 1.3
    endloop
  endfacet
  facet normal -0.997853 -0.0654873 0
    outer loop
      vertex 96.9743 57.2916 3
      vertex 97 56.9 1.3
      vertex 97 56.9 3
    endloop
  endfacet
  facet normal -0.751724 -0.659478 0
    outer loop
      vertex 96.3801 58.7263 1.3
      vertex 96.1213 59.0213 3
      vertex 96.1213 59.0213 1.3
    endloop
  endfacet
  facet normal -0.751724 -0.659478 0
    outer loop
      vertex 96.1213 59.0213 3
      vertex 96.3801 58.7263 1.3
      vertex 96.3801 58.7263 3
    endloop
  endfacet
  facet normal -0.659478 -0.751724 0
    outer loop
      vertex 95.8263 59.2801 1.3
      vertex 96.1213 59.0213 3
      vertex 95.8263 59.2801 3
    endloop
  endfacet
  facet normal -0.659478 -0.751724 -0
    outer loop
      vertex 96.1213 59.0213 3
      vertex 95.8263 59.2801 1.3
      vertex 96.1213 59.0213 1.3
    endloop
  endfacet
  facet normal -0.831501 -0.555523 0
    outer loop
      vertex 96.5981 58.4 1.3
      vertex 96.3801 58.7263 3
      vertex 96.3801 58.7263 1.3
    endloop
  endfacet
  facet normal -0.831501 -0.555523 0
    outer loop
      vertex 96.3801 58.7263 3
      vertex 96.5981 58.4 1.3
      vertex 96.5981 58.4 3
    endloop
  endfacet
  facet normal -0.555523 -0.831501 0
    outer loop
      vertex 95.5 59.4981 1.3
      vertex 95.8263 59.2801 3
      vertex 95.5 59.4981 3
    endloop
  endfacet
  facet normal -0.555523 -0.831501 -0
    outer loop
      vertex 95.8263 59.2801 3
      vertex 95.5 59.4981 1.3
      vertex 95.8263 59.2801 1.3
    endloop
  endfacet
  facet normal 0 0 1
    outer loop
      vertex 102 60 1.9
      vertex 98.9743 59.3916 1.9
      vertex 99 59 1.9
    endloop
  endfacet
  facet normal 0 0 1
    outer loop
      vertex 97.5 61.5981 1.9
      vertex 99.5 64.3301 1.9
      vertex 98.9134 64.6194 1.9
    endloop
  endfacet
  facet normal 0 0 1
    outer loop
      vertex 100.044 63.9668 1.9
      vertex 98.8978 59.7765 1.9
      vertex 98.9743 59.3916 1.9
    endloop
  endfacet
  facet normal 0 0 1
    outer loop
      vertex 100.044 63.9668 1.9
      vertex 98.7716 60.1481 1.9
      vertex 98.8978 59.7765 1.9
    endloop
  endfacet
  facet normal 0 0 1
    outer loop
      vertex 100.044 63.9668 1.9
      vertex 98.5981 60.5 1.9
      vertex 98.7716 60.1481 1.9
    endloop
  endfacet
  facet normal 0 0 1
    outer loop
      vertex 100.044 63.9668 1.9
      vertex 98.3801 60.8263 1.9
      vertex 98.5981 60.5 1.9
    endloop
  endfacet
  facet normal 0 0 1
    outer loop
      vertex 97.5 61.5981 1.9
      vertex 98.9134 64.6194 1.9
      vertex 98.2941 64.8296 1.9
    endloop
  endfacet
  facet normal 0 0 1
    outer loop
      vertex 100.044 63.9668 1.9
      vertex 98.1213 61.1213 1.9
      vertex 98.3801 60.8263 1.9
    endloop
  endfacet
  facet normal 0 0 1
    outer loop
      vertex 100.044 63.9668 1.9
      vertex 97.8263 61.3801 1.9
      vertex 98.1213 61.1213 1.9
    endloop
  endfacet
  facet normal 0 0 1
    outer loop
      vertex 97.1481 61.7716 1.9
      vertex 98.2941 64.8296 1.9
      vertex 97.6526 64.9572 1.9
    endloop
  endfacet
  facet normal 0 0 1
    outer loop
      vertex 99.5 64.3301 1.9
      vertex 97.5 61.5981 1.9
      vertex 97.8263 61.3801 1.9
    endloop
  endfacet
  facet normal 0 0 1
    outer loop
      vertex 98.2941 64.8296 1.9
      vertex 97.1481 61.7716 1.9
      vertex 97.5 61.5981 1.9
    endloop
  endfacet
  facet normal 0 0 1
    outer loop
      vertex 96.7765 61.8978 1.9
      vertex 97.6526 64.9572 1.9
      vertex 97 65 1.9
    endloop
  endfacet
  facet normal 0 0 1
    outer loop
      vertex 97.6526 64.9572 1.9
      vertex 96.7765 61.8978 1.9
      vertex 97.1481 61.7716 1.9
    endloop
  endfacet
  facet normal 0 0 1
    outer loop
      vertex 97 65 1.9
      vertex 96.3916 61.9743 1.9
      vertex 96.7765 61.8978 1.9
    endloop
  endfacet
  facet normal 0 0 1
    outer loop
      vertex 97 65 1.9
      vertex 96 62 1.9
      vertex 96.3916 61.9743 1.9
    endloop
  endfacet
  facet normal -0 0 1
    outer loop
      vertex 81 65 1.9
      vertex 96 62 1.9
      vertex 97 65 1.9
    endloop
  endfacet
  facet normal 0 0 1
    outer loop
      vertex 96 62 1.9
      vertex 81 65 1.9
      vertex 81 62 1.9
    endloop
  endfacet
  facet normal 0 0 1
    outer loop
      vertex 98.9743 59.3916 1.9
      vertex 102 60 1.9
      vertex 101.957 60.6526 1.9
    endloop
  endfacet
  facet normal 0 0 1
    outer loop
      vertex 98.9743 59.3916 1.9
      vertex 101.957 60.6526 1.9
      vertex 101.83 61.2941 1.9
    endloop
  endfacet
  facet normal 0 0 1
    outer loop
      vertex 98.9743 59.3916 1.9
      vertex 101.83 61.2941 1.9
      vertex 101.619 61.9134 1.9
    endloop
  endfacet
  facet normal 0 0 1
    outer loop
      vertex 98.9743 59.3916 1.9
      vertex 101.619 61.9134 1.9
      vertex 101.33 62.5 1.9
    endloop
  endfacet
  facet normal 0 0 1
    outer loop
      vertex 98.9743 59.3916 1.9
      vertex 101.33 62.5 1.9
      vertex 100.967 63.0438 1.9
    endloop
  endfacet
  facet normal 0 0 1
    outer loop
      vertex 98.9743 59.3916 1.9
      vertex 100.967 63.0438 1.9
      vertex 100.536 63.5355 1.9
    endloop
  endfacet
  facet normal 0 0 1
    outer loop
      vertex 98.9743 59.3916 1.9
      vertex 100.536 63.5355 1.9
      vertex 100.044 63.9668 1.9
    endloop
  endfacet
  facet normal 0 0 1
    outer loop
      vertex 97.8263 61.3801 1.9
      vertex 100.044 63.9668 1.9
      vertex 99.5 64.3301 1.9
    endloop
  endfacet
  facet normal 0 0 1
    outer loop
      vertex 102 60 1.9
      vertex 99 59 1.9
      vertex 102 46 1.9
    endloop
  endfacet
  facet normal 0 0 1
    outer loop
      vertex 102 46 1.9
      vertex 99 59 1.9
      vertex 99 46 1.9
    endloop
  endfacet
  facet normal -1 0 0
    outer loop
      vertex 102 46 1.9
      vertex 102 60 3
      vertex 102 60 1.9
    endloop
  endfacet
  facet normal -1 -0 0
    outer loop
      vertex 102 60 3
      vertex 102 46 1.9
      vertex 102 46 3
    endloop
  endfacet
  facet normal -0.997836 -0.0657477 0
    outer loop
      vertex 102 60 1.9
      vertex 101.957 60.6526 3
      vertex 101.957 60.6526 1.9
    endloop
  endfacet
  facet normal -0.997836 -0.0657477 0
    outer loop
      vertex 101.957 60.6526 3
      vertex 102 60 1.9
      vertex 102 60 3
    endloop
  endfacet
  facet normal -0.980961 -0.194204 0
    outer loop
      vertex 101.957 60.6526 1.9
      vertex 101.83 61.2941 3
      vertex 101.83 61.2941 1.9
    endloop
  endfacet
  facet normal -0.980961 -0.194204 0
    outer loop
      vertex 101.83 61.2941 3
      vertex 101.957 60.6526 1.9
      vertex 101.957 60.6526 3
    endloop
  endfacet
  facet normal -0.946569 -0.322503 0
    outer loop
      vertex 101.83 61.2941 1.9
      vertex 101.619 61.9134 3
      vertex 101.619 61.9134 1.9
    endloop
  endfacet
  facet normal -0.946569 -0.322503 0
    outer loop
      vertex 101.619 61.9134 3
      vertex 101.83 61.2941 1.9
      vertex 101.83 61.2941 3
    endloop
  endfacet
  facet normal -0.897042 -0.441945 0
    outer loop
      vertex 101.619 61.9134 1.9
      vertex 101.33 62.5 3
      vertex 101.33 62.5 1.9
    endloop
  endfacet
  facet normal -0.897042 -0.441945 0
    outer loop
      vertex 101.33 62.5 3
      vertex 101.619 61.9134 1.9
      vertex 101.619 61.9134 3
    endloop
  endfacet
  facet normal -0.831721 -0.555194 0
    outer loop
      vertex 101.33 62.5 1.9
      vertex 100.967 63.0438 3
      vertex 100.967 63.0438 1.9
    endloop
  endfacet
  facet normal -0.831721 -0.555194 0
    outer loop
      vertex 100.967 63.0438 3
      vertex 101.33 62.5 1.9
      vertex 101.33 62.5 3
    endloop
  endfacet
  facet normal -0.751998 -0.659165 0
    outer loop
      vertex 100.967 63.0438 1.9
      vertex 100.536 63.5355 3
      vertex 100.536 63.5355 1.9
    endloop
  endfacet
  facet normal -0.751998 -0.659165 0
    outer loop
      vertex 100.536 63.5355 3
      vertex 100.967 63.0438 1.9
      vertex 100.967 63.0438 3
    endloop
  endfacet
  facet normal -0.659197 -0.75197 0
    outer loop
      vertex 100.044 63.9668 1.9
      vertex 100.536 63.5355 3
      vertex 100.044 63.9668 3
    endloop
  endfacet
  facet normal -0.659197 -0.75197 -0
    outer loop
      vertex 100.536 63.5355 3
      vertex 100.044 63.9668 1.9
      vertex 100.536 63.5355 1.9
    endloop
  endfacet
  facet normal -0.55537 -0.831603 0
    outer loop
      vertex 99.5 64.3301 1.9
      vertex 100.044 63.9668 3
      vertex 99.5 64.3301 3
    endloop
  endfacet
  facet normal -0.55537 -0.831603 -0
    outer loop
      vertex 100.044 63.9668 3
      vertex 99.5 64.3301 1.9
      vertex 100.044 63.9668 1.9
    endloop
  endfacet
  facet normal -0.442314 -0.89686 0
    outer loop
      vertex 98.9134 64.6194 1.9
      vertex 99.5 64.3301 3
      vertex 98.9134 64.6194 3
    endloop
  endfacet
  facet normal -0.442314 -0.89686 -0
    outer loop
      vertex 99.5 64.3301 3
      vertex 98.9134 64.6194 1.9
      vertex 99.5 64.3301 1.9
    endloop
  endfacet
  facet normal -0.321407 -0.946941 0
    outer loop
      vertex 98.2941 64.8296 1.9
      vertex 98.9134 64.6194 3
      vertex 98.2941 64.8296 3
    endloop
  endfacet
  facet normal -0.321407 -0.946941 -0
    outer loop
      vertex 98.9134 64.6194 3
      vertex 98.2941 64.8296 1.9
      vertex 98.9134 64.6194 1.9
    endloop
  endfacet
  facet normal -0.195087 -0.980786 0
    outer loop
      vertex 97.6526 64.9572 1.9
      vertex 98.2941 64.8296 3
      vertex 97.6526 64.9572 3
    endloop
  endfacet
  facet normal -0.195087 -0.980786 -0
    outer loop
      vertex 98.2941 64.8296 3
      vertex 97.6526 64.9572 1.9
      vertex 98.2941 64.8296 1.9
    endloop
  endfacet
  facet normal -0.0654432 -0.997856 0
    outer loop
      vertex 97 65 1.9
      vertex 97.6526 64.9572 3
      vertex 97 65 3
    endloop
  endfacet
  facet normal -0.0654432 -0.997856 -0
    outer loop
      vertex 97.6526 64.9572 3
      vertex 97 65 1.9
      vertex 97.6526 64.9572 1.9
    endloop
  endfacet
  facet normal 0 -1 0
    outer loop
      vertex 81 65 1.9
      vertex 97 65 3
      vertex 81 65 3
    endloop
  endfacet
  facet normal 0 -1 -0
    outer loop
      vertex 97 65 3
      vertex 81 65 1.9
      vertex 97 65 1.9
    endloop
  endfacet
  facet normal 0 1 -0
    outer loop
      vertex 96 62 1.9
      vertex 81 62 3
      vertex 96 62 3
    endloop
  endfacet
  facet normal 0 1 0
    outer loop
      vertex 81 62 3
      vertex 96 62 1.9
      vertex 81 62 1.9
    endloop
  endfacet
  facet normal 0.0654873 0.997853 -0
    outer loop
      vertex 96.3916 61.9743 1.9
      vertex 96 62 3
      vertex 96.3916 61.9743 3
    endloop
  endfacet
  facet normal 0.0654873 0.997853 0
    outer loop
      vertex 96 62 3
      vertex 96.3916 61.9743 1.9
      vertex 96 62 1.9
    endloop
  endfacet
  facet normal 0.19494 0.980815 -0
    outer loop
      vertex 96.7765 61.8978 1.9
      vertex 96.3916 61.9743 3
      vertex 96.7765 61.8978 3
    endloop
  endfacet
  facet normal 0.19494 0.980815 0
    outer loop
      vertex 96.3916 61.9743 3
      vertex 96.7765 61.8978 1.9
      vertex 96.3916 61.9743 1.9
    endloop
  endfacet
  facet normal 0.321574 0.946885 -0
    outer loop
      vertex 97.1481 61.7716 1.9
      vertex 96.7765 61.8978 3
      vertex 97.1481 61.7716 3
    endloop
  endfacet
  facet normal 0.321574 0.946885 0
    outer loop
      vertex 96.7765 61.8978 3
      vertex 97.1481 61.7716 1.9
      vertex 96.7765 61.8978 1.9
    endloop
  endfacet
  facet normal 0.442211 0.896911 -0
    outer loop
      vertex 97.5 61.5981 1.9
      vertex 97.1481 61.7716 3
      vertex 97.5 61.5981 3
    endloop
  endfacet
  facet normal 0.442211 0.896911 0
    outer loop
      vertex 97.1481 61.7716 3
      vertex 97.5 61.5981 1.9
      vertex 97.1481 61.7716 1.9
    endloop
  endfacet
  facet normal 0.555523 0.831501 -0
    outer loop
      vertex 97.8263 61.3801 1.9
      vertex 97.5 61.5981 3
      vertex 97.8263 61.3801 3
    endloop
  endfacet
  facet normal 0.555523 0.831501 0
    outer loop
      vertex 97.5 61.5981 3
      vertex 97.8263 61.3801 1.9
      vertex 97.5 61.5981 1.9
    endloop
  endfacet
  facet normal 0.659478 0.751724 -0
    outer loop
      vertex 98.1213 61.1213 1.9
      vertex 97.8263 61.3801 3
      vertex 98.1213 61.1213 3
    endloop
  endfacet
  facet normal 0.659478 0.751724 0
    outer loop
      vertex 97.8263 61.3801 3
      vertex 98.1213 61.1213 1.9
      vertex 97.8263 61.3801 1.9
    endloop
  endfacet
  facet normal 0.751724 0.659478 0
    outer loop
      vertex 98.3801 60.8263 3
      vertex 98.1213 61.1213 1.9
      vertex 98.1213 61.1213 3
    endloop
  endfacet
  facet normal 0.751724 0.659478 0
    outer loop
      vertex 98.1213 61.1213 1.9
      vertex 98.3801 60.8263 3
      vertex 98.3801 60.8263 1.9
    endloop
  endfacet
  facet normal 0.831501 0.555523 0
    outer loop
      vertex 98.5981 60.5 3
      vertex 98.3801 60.8263 1.9
      vertex 98.3801 60.8263 3
    endloop
  endfacet
  facet normal 0.831501 0.555523 0
    outer loop
      vertex 98.3801 60.8263 1.9
      vertex 98.5981 60.5 3
      vertex 98.5981 60.5 1.9
    endloop
  endfacet
  facet normal 0.896911 0.442211 0
    outer loop
      vertex 98.7716 60.1481 3
      vertex 98.5981 60.5 1.9
      vertex 98.5981 60.5 3
    endloop
  endfacet
  facet normal 0.896911 0.442211 0
    outer loop
      vertex 98.5981 60.5 1.9
      vertex 98.7716 60.1481 3
      vertex 98.7716 60.1481 1.9
    endloop
  endfacet
  facet normal 0.946885 0.321574 0
    outer loop
      vertex 98.8978 59.7765 3
      vertex 98.7716 60.1481 1.9
      vertex 98.7716 60.1481 3
    endloop
  endfacet
  facet normal 0.946885 0.321574 0
    outer loop
      vertex 98.7716 60.1481 1.9
      vertex 98.8978 59.7765 3
      vertex 98.8978 59.7765 1.9
    endloop
  endfacet
  facet normal 0.980815 0.19494 0
    outer loop
      vertex 98.9743 59.3916 3
      vertex 98.8978 59.7765 1.9
      vertex 98.8978 59.7765 3
    endloop
  endfacet
  facet normal 0.980815 0.19494 0
    outer loop
      vertex 98.8978 59.7765 1.9
      vertex 98.9743 59.3916 3
      vertex 98.9743 59.3916 1.9
    endloop
  endfacet
  facet normal 0.997853 0.0654873 0
    outer loop
      vertex 99 59 3
      vertex 98.9743 59.3916 1.9
      vertex 98.9743 59.3916 3
    endloop
  endfacet
  facet normal 0.997853 0.0654873 0
    outer loop
      vertex 98.9743 59.3916 1.9
      vertex 99 59 3
      vertex 99 59 1.9
    endloop
  endfacet
  facet normal 1 -0 0
    outer loop
      vertex 99 46 3
      vertex 99 59 1.9
      vertex 99 59 3
    endloop
  endfacet
  facet normal 1 0 0
    outer loop
      vertex 99 59 1.9
      vertex 99 46 3
      vertex 99 46 1.9
    endloop
  endfacet
  facet normal -1 0 0
    outer loop
      vertex 81 71 0
      vertex 81 65 1.9
      vertex 81 71 3
    endloop
  endfacet
  facet normal -1 0 0
    outer loop
      vertex 81 59.9 1.3
      vertex 81 65 1.9
      vertex 81 71 0
    endloop
  endfacet
  facet normal -1 0 0
    outer loop
      vertex 81 59.9 3
      vertex 81 62 1.9
      vertex 81 59.9 1.3
    endloop
  endfacet
  facet normal -1 -0 0
    outer loop
      vertex 81 65 1.9
      vertex 81 59.9 1.3
      vertex 81 62 1.9
    endloop
  endfacet
  facet normal -1 0 0
    outer loop
      vertex 81 46 0
      vertex 81 59.9 1.3
      vertex 81 71 0
    endloop
  endfacet
  facet normal -1 -0 0
    outer loop
      vertex 81 59.9 1.3
      vertex 81 46 0
      vertex 81 46 1.3
    endloop
  endfacet
  facet normal -1 -0 0
    outer loop
      vertex 81 71 3
      vertex 81 65 1.9
      vertex 81 65 3
    endloop
  endfacet
  facet normal -1 0 0
    outer loop
      vertex 81 62 1.9
      vertex 81 59.9 3
      vertex 81 62 3
    endloop
  endfacet
  facet normal 0 -1 0
    outer loop
      vertex 81 46 1.3
      vertex 81 46 0
      vertex 97 46 1.3
    endloop
  endfacet
  facet normal 0 -1 0
    outer loop
      vertex 97 46 3
      vertex 99 46 1.9
      vertex 99 46 3
    endloop
  endfacet
  facet normal 0 -1 -0
    outer loop
      vertex 99 46 1.9
      vertex 97 46 1.3
      vertex 102 46 1.9
    endloop
  endfacet
  facet normal 0 -1 0
    outer loop
      vertex 97 46 1.3
      vertex 99 46 1.9
      vertex 97 46 3
    endloop
  endfacet
  facet normal 0 -1 0
    outer loop
      vertex 102 46 1.9
      vertex 106 46 3
      vertex 102 46 3
    endloop
  endfacet
  facet normal 0 -1 0
    outer loop
      vertex 102 46 1.9
      vertex 106 46 0
      vertex 106 46 3
    endloop
  endfacet
  facet normal 0 -1 0
    outer loop
      vertex 97 46 1.3
      vertex 106 46 0
      vertex 102 46 1.9
    endloop
  endfacet
  facet normal 0 -1 0
    outer loop
      vertex 106 46 0
      vertex 97 46 1.3
      vertex 81 46 0
    endloop
  endfacet
endsolid OpenSCAD_Model
