solid OpenSCAD_Model
  facet normal -1 0 0
    outer loop
      vertex -22.35 -1.7 -1
      vertex -22.35 -10 1
      vertex -22.35 -1.7 4
    endloop
  endfacet
  facet normal -1 0 0
    outer loop
      vertex -22.35 -12 -1
      vertex -22.35 -10 1
      vertex -22.35 -1.7 -1
    endloop
  endfacet
  facet normal -1 -0 0
    outer loop
      vertex -22.35 -10 1
      vertex -22.35 -12 -1
      vertex -22.35 -12 1
    endloop
  endfacet
  facet normal -1 0 0
    outer loop
      vertex -22.35 12 -1
      vertex -22.35 10 1
      vertex -22.35 12 1
    endloop
  endfacet
  facet normal -1 0 0
    outer loop
      vertex -22.35 1.7 -1
      vertex -22.35 10 1
      vertex -22.35 12 -1
    endloop
  endfacet
  facet normal -1 0 0
    outer loop
      vertex -22.35 1.7 4
      vertex -22.35 10 1
      vertex -22.35 1.7 -1
    endloop
  endfacet
  facet normal -1 0 0
    outer loop
      vertex -22.35 10 1
      vertex -22.35 1.7 4
      vertex -22.35 10 11.35
    endloop
  endfacet
  facet normal -1 0 0
    outer loop
      vertex -22.35 -1.7 4
      vertex -22.35 10 11.35
      vertex -22.35 1.7 4
    endloop
  endfacet
  facet normal -1 0 0
    outer loop
      vertex -22.35 -10 11.35
      vertex -22.35 -1.7 4
      vertex -22.35 -10 1
    endloop
  endfacet
  facet normal -1 0 0
    outer loop
      vertex -22.35 -1.7 4
      vertex -22.35 -10 11.35
      vertex -22.35 10 11.35
    endloop
  endfacet
  facet normal -0 0 1
    outer loop
      vertex -22.35 10 11.35
      vertex -20.85 -10 11.35
      vertex -20.85 10 11.35
    endloop
  endfacet
  facet normal 0 0 1
    outer loop
      vertex -20.85 -10 11.35
      vertex -22.35 10 11.35
      vertex -22.35 -10 11.35
    endloop
  endfacet
  facet normal 1 -0 0
    outer loop
      vertex -20.35 -10 10.75
      vertex -20.35 10 1
      vertex -20.35 10 10.75
    endloop
  endfacet
  facet normal 1 0 0
    outer loop
      vertex -20.35 10 1
      vertex -20.35 -10 10.75
      vertex -20.35 -10 1
    endloop
  endfacet
  facet normal 0 1 -0
    outer loop
      vertex -20.35 10 10.75
      vertex -20.85 10 11.95
      vertex -18.85 10 11.95
    endloop
  endfacet
  facet normal 0 1 0
    outer loop
      vertex -20.35 10 10.75
      vertex -18.85 10 11.95
      vertex -18.85 10 10.75
    endloop
  endfacet
  facet normal 0 1 0
    outer loop
      vertex -20.85 10 11.95
      vertex -20.35 10 10.75
      vertex -20.85 10 11.35
    endloop
  endfacet
  facet normal 0 1 0
    outer loop
      vertex -20.85 10 11.35
      vertex -20.35 10 10.75
      vertex -22.35 10 11.35
    endloop
  endfacet
  facet normal 0 1 0
    outer loop
      vertex -22.35 10 1
      vertex -20.35 10 10.75
      vertex -20.35 10 1
    endloop
  endfacet
  facet normal 0 1 0
    outer loop
      vertex -20.35 10 10.75
      vertex -22.35 10 1
      vertex -22.35 10 11.35
    endloop
  endfacet
  facet normal 0 -1 0
    outer loop
      vertex -22.35 -10 11.35
      vertex -20.35 -10 10.75
      vertex -20.85 -10 11.35
    endloop
  endfacet
  facet normal 0 -1 0
    outer loop
      vertex -22.35 -10 1
      vertex -20.35 -10 10.75
      vertex -22.35 -10 11.35
    endloop
  endfacet
  facet normal 0 -1 -0
    outer loop
      vertex -20.35 -10 10.75
      vertex -22.35 -10 1
      vertex -20.35 -10 1
    endloop
  endfacet
  facet normal 0 -1 0
    outer loop
      vertex -20.35 -10 10.75
      vertex -20.85 -10 11.95
      vertex -20.85 -10 11.35
    endloop
  endfacet
  facet normal 0 -1 0
    outer loop
      vertex -20.85 -10 11.95
      vertex -20.35 -10 10.75
      vertex -18.85 -10 11.95
    endloop
  endfacet
  facet normal 0 -1 -0
    outer loop
      vertex -18.85 -10 11.95
      vertex -20.35 -10 10.75
      vertex -18.85 -10 10.75
    endloop
  endfacet
  facet normal -1 0 0
    outer loop
      vertex 20.35 -10 1
      vertex 20.35 10 10.75
      vertex 20.35 10 1
    endloop
  endfacet
  facet normal -1 -0 0
    outer loop
      vertex 20.35 10 10.75
      vertex 20.35 -10 1
      vertex 20.35 -10 10.75
    endloop
  endfacet
  facet normal -0 0 1
    outer loop
      vertex 20.85 10 11.35
      vertex 22.35 -10 11.35
      vertex 22.35 10 11.35
    endloop
  endfacet
  facet normal 0 0 1
    outer loop
      vertex 22.35 -10 11.35
      vertex 20.85 10 11.35
      vertex 20.85 -10 11.35
    endloop
  endfacet
  facet normal 1 0 0
    outer loop
      vertex 22.35 10 11.35
      vertex 22.35 1.7 4
      vertex 22.35 10 1
    endloop
  endfacet
  facet normal 1 0 0
    outer loop
      vertex 22.35 10 11.35
      vertex 22.35 -1.7 4
      vertex 22.35 1.7 4
    endloop
  endfacet
  facet normal 1 -0 0
    outer loop
      vertex 22.35 -10 11.35
      vertex 22.35 -1.7 4
      vertex 22.35 10 11.35
    endloop
  endfacet
  facet normal 1 0 0
    outer loop
      vertex 22.35 -10 1
      vertex 22.35 -1.7 4
      vertex 22.35 -10 11.35
    endloop
  endfacet
  facet normal 1 0 0
    outer loop
      vertex 22.35 -1.7 4
      vertex 22.35 -10 1
      vertex 22.35 -1.7 -1
    endloop
  endfacet
  facet normal 1 0 0
    outer loop
      vertex 22.35 -12 -1
      vertex 22.35 -10 1
      vertex 22.35 -12 1
    endloop
  endfacet
  facet normal 1 0 0
    outer loop
      vertex 22.35 -10 1
      vertex 22.35 -12 -1
      vertex 22.35 -1.7 -1
    endloop
  endfacet
  facet normal 1 -0 0
    outer loop
      vertex 22.35 10 1
      vertex 22.35 12 -1
      vertex 22.35 12 1
    endloop
  endfacet
  facet normal 1 0 0
    outer loop
      vertex 22.35 1.7 -1
      vertex 22.35 10 1
      vertex 22.35 1.7 4
    endloop
  endfacet
  facet normal 1 0 0
    outer loop
      vertex 22.35 10 1
      vertex 22.35 1.7 -1
      vertex 22.35 12 -1
    endloop
  endfacet
  facet normal 0 1 0
    outer loop
      vertex 22.35 10 11.35
      vertex 20.35 10 10.75
      vertex 20.85 10 11.35
    endloop
  endfacet
  facet normal 0 1 -0
    outer loop
      vertex 22.35 10 1
      vertex 20.35 10 10.75
      vertex 22.35 10 11.35
    endloop
  endfacet
  facet normal 0 1 0
    outer loop
      vertex 20.35 10 10.75
      vertex 22.35 10 1
      vertex 20.35 10 1
    endloop
  endfacet
  facet normal 0 1 0
    outer loop
      vertex 20.35 10 10.75
      vertex 20.85 10 11.95
      vertex 20.85 10 11.35
    endloop
  endfacet
  facet normal 0 1 0
    outer loop
      vertex 20.85 10 11.95
      vertex 20.35 10 10.75
      vertex 18.85 10 11.95
    endloop
  endfacet
  facet normal 0 1 0
    outer loop
      vertex 18.85 10 11.95
      vertex 20.35 10 10.75
      vertex 18.85 10 10.75
    endloop
  endfacet
  facet normal 0 -1 0
    outer loop
      vertex 20.35 -10 10.75
      vertex 20.85 -10 11.95
      vertex 18.85 -10 11.95
    endloop
  endfacet
  facet normal 0 -1 0
    outer loop
      vertex 20.35 -10 10.75
      vertex 18.85 -10 11.95
      vertex 18.85 -10 10.75
    endloop
  endfacet
  facet normal 0 -1 -0
    outer loop
      vertex 20.85 -10 11.95
      vertex 20.35 -10 10.75
      vertex 20.85 -10 11.35
    endloop
  endfacet
  facet normal 0 -1 -0
    outer loop
      vertex 20.85 -10 11.35
      vertex 20.35 -10 10.75
      vertex 22.35 -10 11.35
    endloop
  endfacet
  facet normal 0 -1 0
    outer loop
      vertex 22.35 -10 1
      vertex 20.35 -10 10.75
      vertex 20.35 -10 1
    endloop
  endfacet
  facet normal 0 -1 0
    outer loop
      vertex 20.35 -10 10.75
      vertex 22.35 -10 1
      vertex 22.35 -10 11.35
    endloop
  endfacet
  facet normal -1 0 0
    outer loop
      vertex -20.85 -10 11.35
      vertex -20.85 10 11.95
      vertex -20.85 10 11.35
    endloop
  endfacet
  facet normal -1 -0 0
    outer loop
      vertex -20.85 10 11.95
      vertex -20.85 -10 11.35
      vertex -20.85 -10 11.95
    endloop
  endfacet
  facet normal -0 0 1
    outer loop
      vertex -20.85 10 11.95
      vertex -18.85 -10 11.95
      vertex -18.85 10 11.95
    endloop
  endfacet
  facet normal 0 0 1
    outer loop
      vertex -18.85 -10 11.95
      vertex -20.85 10 11.95
      vertex -20.85 -10 11.95
    endloop
  endfacet
  facet normal 1 -0 0
    outer loop
      vertex -18.85 -10 11.95
      vertex -18.85 10 10.75
      vertex -18.85 10 11.95
    endloop
  endfacet
  facet normal 1 0 0
    outer loop
      vertex -18.85 10 10.75
      vertex -18.85 -10 11.95
      vertex -18.85 -10 10.75
    endloop
  endfacet
  facet normal 0 0 -1
    outer loop
      vertex -20.35 -10 10.75
      vertex -18.85 10 10.75
      vertex -18.85 -10 10.75
    endloop
  endfacet
  facet normal -0 0 -1
    outer loop
      vertex -18.85 10 10.75
      vertex -20.35 -10 10.75
      vertex -20.35 10 10.75
    endloop
  endfacet
  facet normal -1 0 0
    outer loop
      vertex 18.85 -10 10.75
      vertex 18.85 10 11.95
      vertex 18.85 10 10.75
    endloop
  endfacet
  facet normal -1 -0 0
    outer loop
      vertex 18.85 10 11.95
      vertex 18.85 -10 10.75
      vertex 18.85 -10 11.95
    endloop
  endfacet
  facet normal -0 0 1
    outer loop
      vertex 18.85 10 11.95
      vertex 20.85 -10 11.95
      vertex 20.85 10 11.95
    endloop
  endfacet
  facet normal 0 0 1
    outer loop
      vertex 20.85 -10 11.95
      vertex 18.85 10 11.95
      vertex 18.85 -10 11.95
    endloop
  endfacet
  facet normal 1 -0 0
    outer loop
      vertex 20.85 -10 11.95
      vertex 20.85 10 11.35
      vertex 20.85 10 11.95
    endloop
  endfacet
  facet normal 1 0 0
    outer loop
      vertex 20.85 10 11.35
      vertex 20.85 -10 11.95
      vertex 20.85 -10 11.35
    endloop
  endfacet
  facet normal 0 0 -1
    outer loop
      vertex 18.85 -10 10.75
      vertex 20.35 10 10.75
      vertex 20.35 -10 10.75
    endloop
  endfacet
  facet normal -0 0 -1
    outer loop
      vertex 20.35 10 10.75
      vertex 18.85 -10 10.75
      vertex 18.85 10 10.75
    endloop
  endfacet
  facet normal 0 0 1
    outer loop
      vertex 22.35 12 1
      vertex 20.35 10 1
      vertex 22.35 10 1
    endloop
  endfacet
  facet normal 0 0 1
    outer loop
      vertex 20.35 10 1
      vertex -20.35 10 1
      vertex 20.35 -10 1
    endloop
  endfacet
  facet normal 0 0 1
    outer loop
      vertex 22.35 12 1
      vertex -20.35 10 1
      vertex 20.35 10 1
    endloop
  endfacet
  facet normal -0 0 1
    outer loop
      vertex -22.35 12 1
      vertex -20.35 10 1
      vertex 22.35 12 1
    endloop
  endfacet
  facet normal 0 0 1
    outer loop
      vertex -20.35 10 1
      vertex -22.35 12 1
      vertex -22.35 10 1
    endloop
  endfacet
  facet normal -0 0 1
    outer loop
      vertex 20.35 -10 1
      vertex 22.35 -12 1
      vertex 22.35 -10 1
    endloop
  endfacet
  facet normal 0 0 1
    outer loop
      vertex -20.35 -10 1
      vertex 20.35 -10 1
      vertex -20.35 10 1
    endloop
  endfacet
  facet normal 0 0 1
    outer loop
      vertex 20.35 -10 1
      vertex -20.35 -10 1
      vertex 22.35 -12 1
    endloop
  endfacet
  facet normal 0 0 1
    outer loop
      vertex -22.35 -12 1
      vertex -20.35 -10 1
      vertex -22.35 -10 1
    endloop
  endfacet
  facet normal 0 0 1
    outer loop
      vertex -20.35 -10 1
      vertex -22.35 -12 1
      vertex 22.35 -12 1
    endloop
  endfacet
  facet normal 0 1 -0
    outer loop
      vertex 22.35 12 -1
      vertex -22.35 12 1
      vertex 22.35 12 1
    endloop
  endfacet
  facet normal 0 1 0
    outer loop
      vertex -22.35 12 1
      vertex 22.35 12 -1
      vertex -22.35 12 -1
    endloop
  endfacet
  facet normal 0 0 -1
    outer loop
      vertex 22.35 -12 -1
      vertex 22.1281 -1.68546 -1
      vertex 22.35 -1.7 -1
    endloop
  endfacet
  facet normal 0 0 -1
    outer loop
      vertex 22.35 -12 -1
      vertex 21.91 -1.64207 -1
      vertex 22.1281 -1.68546 -1
    endloop
  endfacet
  facet normal 0 0 -1
    outer loop
      vertex 22.35 -12 -1
      vertex 21.6994 -1.57059 -1
      vertex 21.91 -1.64207 -1
    endloop
  endfacet
  facet normal 0 0 -1
    outer loop
      vertex 22.35 -12 -1
      vertex 21.5 -1.47224 -1
      vertex 21.6994 -1.57059 -1
    endloop
  endfacet
  facet normal 0 0 -1
    outer loop
      vertex 22.35 -12 -1
      vertex 21.3151 -1.3487 -1
      vertex 21.5 -1.47224 -1
    endloop
  endfacet
  facet normal 0 0 -1
    outer loop
      vertex 22.35 -12 -1
      vertex 21.1479 -1.20208 -1
      vertex 21.3151 -1.3487 -1
    endloop
  endfacet
  facet normal 0 0 -1
    outer loop
      vertex 22.35 -12 -1
      vertex 21.0013 -1.03489 -1
      vertex 21.1479 -1.20208 -1
    endloop
  endfacet
  facet normal 0 0 -1
    outer loop
      vertex 22.35 -12 -1
      vertex 20.8778 -0.849999 -1
      vertex 21.0013 -1.03489 -1
    endloop
  endfacet
  facet normal 0 0 -1
    outer loop
      vertex 22.35 -12 -1
      vertex 20.7794 -0.650561 -1
      vertex 20.8778 -0.849999 -1
    endloop
  endfacet
  facet normal 0 0 -1
    outer loop
      vertex -20.7794 -0.650561 -1
      vertex 20.7794 -0.650561 -1
      vertex 22.35 -12 -1
    endloop
  endfacet
  facet normal 0 0 -1
    outer loop
      vertex 20.7794 -0.650561 -1
      vertex -20.7794 -0.650561 -1
      vertex 20.7079 -0.439992 -1
    endloop
  endfacet
  facet normal 0 0 -1
    outer loop
      vertex 20.6645 -0.221894 -1
      vertex -20.65 0 -1
      vertex 20.65 0 -1
    endloop
  endfacet
  facet normal 0 -0 -1
    outer loop
      vertex -20.7079 -0.439992 -1
      vertex 20.7079 -0.439992 -1
      vertex -20.7794 -0.650561 -1
    endloop
  endfacet
  facet normal 0 0 -1
    outer loop
      vertex 20.6645 -0.221894 -1
      vertex -20.6645 -0.221894 -1
      vertex -20.65 0 -1
    endloop
  endfacet
  facet normal -0 0 -1
    outer loop
      vertex 20.6645 -0.221894 -1
      vertex -20.7079 -0.439992 -1
      vertex -20.6645 -0.221894 -1
    endloop
  endfacet
  facet normal 0 0 -1
    outer loop
      vertex 20.7079 -0.439992 -1
      vertex -20.7079 -0.439992 -1
      vertex 20.6645 -0.221894 -1
    endloop
  endfacet
  facet normal 0 0 -1
    outer loop
      vertex -22.35 -12 -1
      vertex -20.7794 -0.650561 -1
      vertex 22.35 -12 -1
    endloop
  endfacet
  facet normal 0 0 -1
    outer loop
      vertex -20.7794 -0.650561 -1
      vertex -22.35 -12 -1
      vertex -20.8778 -0.849999 -1
    endloop
  endfacet
  facet normal 0 0 -1
    outer loop
      vertex -20.8778 -0.849999 -1
      vertex -22.35 -12 -1
      vertex -21.0013 -1.03489 -1
    endloop
  endfacet
  facet normal 0 0 -1
    outer loop
      vertex -21.0013 -1.03489 -1
      vertex -22.35 -12 -1
      vertex -21.1479 -1.20208 -1
    endloop
  endfacet
  facet normal 0 0 -1
    outer loop
      vertex -21.1479 -1.20208 -1
      vertex -22.35 -12 -1
      vertex -21.3151 -1.3487 -1
    endloop
  endfacet
  facet normal 0 0 -1
    outer loop
      vertex -21.3151 -1.3487 -1
      vertex -22.35 -12 -1
      vertex -21.5 -1.47224 -1
    endloop
  endfacet
  facet normal 0 0 -1
    outer loop
      vertex -21.5 -1.47224 -1
      vertex -22.35 -12 -1
      vertex -21.6994 -1.57059 -1
    endloop
  endfacet
  facet normal 0 0 -1
    outer loop
      vertex -21.6994 -1.57059 -1
      vertex -22.35 -12 -1
      vertex -21.91 -1.64207 -1
    endloop
  endfacet
  facet normal 0 0 -1
    outer loop
      vertex -21.91 -1.64207 -1
      vertex -22.35 -12 -1
      vertex -22.1281 -1.68546 -1
    endloop
  endfacet
  facet normal 0 0 -1
    outer loop
      vertex -22.1281 -1.68546 -1
      vertex -22.35 -12 -1
      vertex -22.35 -1.7 -1
    endloop
  endfacet
  facet normal 0 0 -1
    outer loop
      vertex 22.1281 1.68546 -1
      vertex 22.35 12 -1
      vertex 22.35 1.7 -1
    endloop
  endfacet
  facet normal 0 0 -1
    outer loop
      vertex 21.91 1.64207 -1
      vertex 22.35 12 -1
      vertex 22.1281 1.68546 -1
    endloop
  endfacet
  facet normal 0 0 -1
    outer loop
      vertex 21.6994 1.57059 -1
      vertex 22.35 12 -1
      vertex 21.91 1.64207 -1
    endloop
  endfacet
  facet normal 0 0 -1
    outer loop
      vertex 21.5 1.47224 -1
      vertex 22.35 12 -1
      vertex 21.6994 1.57059 -1
    endloop
  endfacet
  facet normal 0 0 -1
    outer loop
      vertex 21.3151 1.3487 -1
      vertex 22.35 12 -1
      vertex 21.5 1.47224 -1
    endloop
  endfacet
  facet normal 0 0 -1
    outer loop
      vertex 21.1479 1.20208 -1
      vertex 22.35 12 -1
      vertex 21.3151 1.3487 -1
    endloop
  endfacet
  facet normal 0 0 -1
    outer loop
      vertex 21.0013 1.03489 -1
      vertex 22.35 12 -1
      vertex 21.1479 1.20208 -1
    endloop
  endfacet
  facet normal 0 0 -1
    outer loop
      vertex 20.8778 0.849999 -1
      vertex 22.35 12 -1
      vertex 21.0013 1.03489 -1
    endloop
  endfacet
  facet normal 0 0 -1
    outer loop
      vertex 20.7794 0.650561 -1
      vertex 22.35 12 -1
      vertex 20.8778 0.849999 -1
    endloop
  endfacet
  facet normal 0 0 -1
    outer loop
      vertex -20.7794 0.650561 -1
      vertex 20.7794 0.650561 -1
      vertex 20.7079 0.439992 -1
    endloop
  endfacet
  facet normal 0 0 -1
    outer loop
      vertex -20.7079 0.439992 -1
      vertex 20.7079 0.439992 -1
      vertex 20.6645 0.221894 -1
    endloop
  endfacet
  facet normal 0 0 -1
    outer loop
      vertex -20.65 0 -1
      vertex 20.6645 0.221894 -1
      vertex 20.65 0 -1
    endloop
  endfacet
  facet normal 0 0 -1
    outer loop
      vertex -20.6645 0.221894 -1
      vertex 20.6645 0.221894 -1
      vertex -20.65 0 -1
    endloop
  endfacet
  facet normal 0 0 -1
    outer loop
      vertex -20.7079 0.439992 -1
      vertex 20.6645 0.221894 -1
      vertex -20.6645 0.221894 -1
    endloop
  endfacet
  facet normal 0 0 -1
    outer loop
      vertex 20.7079 0.439992 -1
      vertex -20.7079 0.439992 -1
      vertex -20.7794 0.650561 -1
    endloop
  endfacet
  facet normal 0 0 -1
    outer loop
      vertex 20.7794 0.650561 -1
      vertex -20.7794 0.650561 -1
      vertex 22.35 12 -1
    endloop
  endfacet
  facet normal 0 0 -1
    outer loop
      vertex -22.35 12 -1
      vertex -20.7794 0.650561 -1
      vertex -20.8778 0.849999 -1
    endloop
  endfacet
  facet normal 0 0 -1
    outer loop
      vertex -22.35 12 -1
      vertex -20.8778 0.849999 -1
      vertex -21.0013 1.03489 -1
    endloop
  endfacet
  facet normal 0 0 -1
    outer loop
      vertex -22.35 12 -1
      vertex -21.0013 1.03489 -1
      vertex -21.1479 1.20208 -1
    endloop
  endfacet
  facet normal 0 0 -1
    outer loop
      vertex -22.35 12 -1
      vertex -21.1479 1.20208 -1
      vertex -21.3151 1.3487 -1
    endloop
  endfacet
  facet normal 0 0 -1
    outer loop
      vertex -22.35 12 -1
      vertex -21.3151 1.3487 -1
      vertex -21.5 1.47224 -1
    endloop
  endfacet
  facet normal 0 0 -1
    outer loop
      vertex -22.35 12 -1
      vertex -21.5 1.47224 -1
      vertex -21.6994 1.57059 -1
    endloop
  endfacet
  facet normal 0 0 -1
    outer loop
      vertex -22.35 12 -1
      vertex -21.6994 1.57059 -1
      vertex -21.91 1.64207 -1
    endloop
  endfacet
  facet normal 0 0 -1
    outer loop
      vertex -22.35 12 -1
      vertex -21.91 1.64207 -1
      vertex -22.1281 1.68546 -1
    endloop
  endfacet
  facet normal 0 0 -1
    outer loop
      vertex -22.35 12 -1
      vertex -22.1281 1.68546 -1
      vertex -22.35 1.7 -1
    endloop
  endfacet
  facet normal 0 0 -1
    outer loop
      vertex -20.7794 0.650561 -1
      vertex -22.35 12 -1
      vertex 22.35 12 -1
    endloop
  endfacet
  facet normal 0 -1 0
    outer loop
      vertex -22.35 -12 -1
      vertex 22.35 -12 1
      vertex -22.35 -12 1
    endloop
  endfacet
  facet normal 0 -1 -0
    outer loop
      vertex 22.35 -12 1
      vertex -22.35 -12 -1
      vertex 22.35 -12 -1
    endloop
  endfacet
  facet normal -0.997872 -0.0652074 0
    outer loop
      vertex -20.65 0 -1
      vertex -20.6645 0.221894 4
      vertex -20.6645 0.221894 -1
    endloop
  endfacet
  facet normal -0.997872 -0.0652074 0
    outer loop
      vertex -20.6645 0.221894 4
      vertex -20.65 0 -1
      vertex -20.65 0 4
    endloop
  endfacet
  facet normal -0.0653848 -0.99786 0
    outer loop
      vertex -22.35 1.7 -1
      vertex -22.1281 1.68546 4
      vertex -22.35 1.7 4
    endloop
  endfacet
  facet normal -0.0653848 -0.99786 -0
    outer loop
      vertex -22.1281 1.68546 4
      vertex -22.35 1.7 -1
      vertex -22.1281 1.68546 -1
    endloop
  endfacet
  facet normal -0.659319 -0.751863 0
    outer loop
      vertex -21.3151 1.3487 -1
      vertex -21.1479 1.20208 4
      vertex -21.3151 1.3487 4
    endloop
  endfacet
  facet normal -0.659319 -0.751863 -0
    outer loop
      vertex -21.1479 1.20208 4
      vertex -21.3151 1.3487 -1
      vertex -21.1479 1.20208 -1
    endloop
  endfacet
  facet normal -0.896787 -0.442463 0
    outer loop
      vertex -20.7794 0.650561 -1
      vertex -20.8778 0.849999 4
      vertex -20.8778 0.849999 -1
    endloop
  endfacet
  facet normal -0.896787 -0.442463 0
    outer loop
      vertex -20.8778 0.849999 4
      vertex -20.7794 0.650561 -1
      vertex -20.7794 0.650561 4
    endloop
  endfacet
  facet normal -0.98077 -0.195167 0
    outer loop
      vertex -20.6645 0.221894 -1
      vertex -20.7079 0.439992 4
      vertex -20.7079 0.439992 -1
    endloop
  endfacet
  facet normal -0.98077 -0.195167 0
    outer loop
      vertex -20.7079 0.439992 4
      vertex -20.6645 0.221894 -1
      vertex -20.6645 0.221894 4
    endloop
  endfacet
  facet normal -0.321403 -0.946943 0
    outer loop
      vertex -21.91 1.64207 -1
      vertex -21.6994 1.57059 4
      vertex -21.91 1.64207 4
    endloop
  endfacet
  facet normal -0.321403 -0.946943 -0
    outer loop
      vertex -21.6994 1.57059 4
      vertex -21.91 1.64207 -1
      vertex -21.6994 1.57059 -1
    endloop
  endfacet
  facet normal -0.195122 -0.980779 0
    outer loop
      vertex -22.1281 1.68546 -1
      vertex -21.91 1.64207 4
      vertex -22.1281 1.68546 4
    endloop
  endfacet
  facet normal -0.195122 -0.980779 -0
    outer loop
      vertex -21.91 1.64207 4
      vertex -22.1281 1.68546 -1
      vertex -21.91 1.64207 -1
    endloop
  endfacet
  facet normal -0.442349 -0.896843 0
    outer loop
      vertex -21.6994 1.57059 -1
      vertex -21.5 1.47224 4
      vertex -21.6994 1.57059 4
    endloop
  endfacet
  facet normal -0.442349 -0.896843 -0
    outer loop
      vertex -21.5 1.47224 4
      vertex -21.6994 1.57059 -1
      vertex -21.5 1.47224 -1
    endloop
  endfacet
  facet normal 0 0 -1
    outer loop
      vertex -20.6645 -0.221894 4
      vertex -20.6645 0.221894 4
      vertex -20.65 0 4
    endloop
  endfacet
  facet normal 0 0 -1
    outer loop
      vertex -20.7079 -0.439992 4
      vertex -20.6645 0.221894 4
      vertex -20.6645 -0.221894 4
    endloop
  endfacet
  facet normal 0 0 -1
    outer loop
      vertex -20.7079 -0.439992 4
      vertex -20.7079 0.439992 4
      vertex -20.6645 0.221894 4
    endloop
  endfacet
  facet normal 0 0 -1
    outer loop
      vertex -20.7794 -0.650561 4
      vertex -20.7079 0.439992 4
      vertex -20.7079 -0.439992 4
    endloop
  endfacet
  facet normal 0 0 -1
    outer loop
      vertex -20.7794 -0.650561 4
      vertex -20.7794 0.650561 4
      vertex -20.7079 0.439992 4
    endloop
  endfacet
  facet normal 0 0 -1
    outer loop
      vertex -20.8778 -0.849999 4
      vertex -20.7794 0.650561 4
      vertex -20.7794 -0.650561 4
    endloop
  endfacet
  facet normal 0 0 -1
    outer loop
      vertex -20.8778 -0.849999 4
      vertex -20.8778 0.849999 4
      vertex -20.7794 0.650561 4
    endloop
  endfacet
  facet normal 0 0 -1
    outer loop
      vertex -21.0013 -1.03489 4
      vertex -20.8778 0.849999 4
      vertex -20.8778 -0.849999 4
    endloop
  endfacet
  facet normal 0 0 -1
    outer loop
      vertex -21.0013 -1.03489 4
      vertex -21.0013 1.03489 4
      vertex -20.8778 0.849999 4
    endloop
  endfacet
  facet normal 0 0 -1
    outer loop
      vertex -21.1479 -1.20208 4
      vertex -21.0013 1.03489 4
      vertex -21.0013 -1.03489 4
    endloop
  endfacet
  facet normal 0 0 -1
    outer loop
      vertex -21.1479 -1.20208 4
      vertex -21.1479 1.20208 4
      vertex -21.0013 1.03489 4
    endloop
  endfacet
  facet normal 0 0 -1
    outer loop
      vertex -21.3151 -1.3487 4
      vertex -21.1479 1.20208 4
      vertex -21.1479 -1.20208 4
    endloop
  endfacet
  facet normal 0 0 -1
    outer loop
      vertex -21.3151 -1.3487 4
      vertex -21.3151 1.3487 4
      vertex -21.1479 1.20208 4
    endloop
  endfacet
  facet normal 0 0 -1
    outer loop
      vertex -21.5 -1.47224 4
      vertex -21.3151 1.3487 4
      vertex -21.3151 -1.3487 4
    endloop
  endfacet
  facet normal 0 0 -1
    outer loop
      vertex -21.5 -1.47224 4
      vertex -21.5 1.47224 4
      vertex -21.3151 1.3487 4
    endloop
  endfacet
  facet normal 0 0 -1
    outer loop
      vertex -21.6994 -1.57059 4
      vertex -21.5 1.47224 4
      vertex -21.5 -1.47224 4
    endloop
  endfacet
  facet normal 0 0 -1
    outer loop
      vertex -21.6994 -1.57059 4
      vertex -21.6994 1.57059 4
      vertex -21.5 1.47224 4
    endloop
  endfacet
  facet normal 0 0 -1
    outer loop
      vertex -21.91 -1.64207 4
      vertex -21.6994 1.57059 4
      vertex -21.6994 -1.57059 4
    endloop
  endfacet
  facet normal 0 0 -1
    outer loop
      vertex -21.91 -1.64207 4
      vertex -21.91 1.64207 4
      vertex -21.6994 1.57059 4
    endloop
  endfacet
  facet normal 0 0 -1
    outer loop
      vertex -22.1281 -1.68546 4
      vertex -21.91 1.64207 4
      vertex -21.91 -1.64207 4
    endloop
  endfacet
  facet normal 0 0 -1
    outer loop
      vertex -22.1281 -1.68546 4
      vertex -22.1281 1.68546 4
      vertex -21.91 1.64207 4
    endloop
  endfacet
  facet normal 0 0 -1
    outer loop
      vertex -22.35 -1.7 4
      vertex -22.1281 1.68546 4
      vertex -22.1281 -1.68546 4
    endloop
  endfacet
  facet normal -0 0 -1
    outer loop
      vertex -22.1281 1.68546 4
      vertex -22.35 -1.7 4
      vertex -22.35 1.7 4
    endloop
  endfacet
  facet normal -0.98077 0.195167 0
    outer loop
      vertex -20.7079 -0.439992 -1
      vertex -20.6645 -0.221894 4
      vertex -20.6645 -0.221894 -1
    endloop
  endfacet
  facet normal -0.98077 0.195167 0
    outer loop
      vertex -20.6645 -0.221894 4
      vertex -20.7079 -0.439992 -1
      vertex -20.7079 -0.439992 4
    endloop
  endfacet
  facet normal -0.946901 -0.321526 0
    outer loop
      vertex -20.7079 0.439992 -1
      vertex -20.7794 0.650561 4
      vertex -20.7794 0.650561 -1
    endloop
  endfacet
  facet normal -0.946901 -0.321526 0
    outer loop
      vertex -20.7794 0.650561 4
      vertex -20.7079 0.439992 -1
      vertex -20.7079 0.439992 4
    endloop
  endfacet
  facet normal -0.751888 -0.659291 0
    outer loop
      vertex -21.0013 1.03489 -1
      vertex -21.1479 1.20208 4
      vertex -21.1479 1.20208 -1
    endloop
  endfacet
  facet normal -0.751888 -0.659291 0
    outer loop
      vertex -21.1479 1.20208 4
      vertex -21.0013 1.03489 -1
      vertex -21.0013 1.03489 4
    endloop
  endfacet
  facet normal -0.831553 -0.555445 0
    outer loop
      vertex -20.8778 0.849999 -1
      vertex -21.0013 1.03489 4
      vertex -21.0013 1.03489 -1
    endloop
  endfacet
  facet normal -0.831553 -0.555445 0
    outer loop
      vertex -21.0013 1.03489 4
      vertex -20.8778 0.849999 -1
      vertex -20.8778 0.849999 4
    endloop
  endfacet
  facet normal -0.555551 -0.831483 0
    outer loop
      vertex -21.5 1.47224 -1
      vertex -21.3151 1.3487 4
      vertex -21.5 1.47224 4
    endloop
  endfacet
  facet normal -0.555551 -0.831483 -0
    outer loop
      vertex -21.3151 1.3487 4
      vertex -21.5 1.47224 -1
      vertex -21.3151 1.3487 -1
    endloop
  endfacet
  facet normal -0.997872 0.0652074 0
    outer loop
      vertex -20.6645 -0.221894 -1
      vertex -20.65 0 4
      vertex -20.65 0 -1
    endloop
  endfacet
  facet normal -0.997872 0.0652074 0
    outer loop
      vertex -20.65 0 4
      vertex -20.6645 -0.221894 -1
      vertex -20.6645 -0.221894 4
    endloop
  endfacet
  facet normal -0.0653848 0.99786 0
    outer loop
      vertex -22.1281 -1.68546 -1
      vertex -22.35 -1.7 4
      vertex -22.1281 -1.68546 4
    endloop
  endfacet
  facet normal -0.0653848 0.99786 0
    outer loop
      vertex -22.35 -1.7 4
      vertex -22.1281 -1.68546 -1
      vertex -22.35 -1.7 -1
    endloop
  endfacet
  facet normal -0.321403 0.946943 0
    outer loop
      vertex -21.6994 -1.57059 -1
      vertex -21.91 -1.64207 4
      vertex -21.6994 -1.57059 4
    endloop
  endfacet
  facet normal -0.321403 0.946943 0
    outer loop
      vertex -21.91 -1.64207 4
      vertex -21.6994 -1.57059 -1
      vertex -21.91 -1.64207 -1
    endloop
  endfacet
  facet normal -0.659319 0.751863 0
    outer loop
      vertex -21.1479 -1.20208 -1
      vertex -21.3151 -1.3487 4
      vertex -21.1479 -1.20208 4
    endloop
  endfacet
  facet normal -0.659319 0.751863 0
    outer loop
      vertex -21.3151 -1.3487 4
      vertex -21.1479 -1.20208 -1
      vertex -21.3151 -1.3487 -1
    endloop
  endfacet
  facet normal -0.442349 0.896843 0
    outer loop
      vertex -21.5 -1.47224 -1
      vertex -21.6994 -1.57059 4
      vertex -21.5 -1.47224 4
    endloop
  endfacet
  facet normal -0.442349 0.896843 0
    outer loop
      vertex -21.6994 -1.57059 4
      vertex -21.5 -1.47224 -1
      vertex -21.6994 -1.57059 -1
    endloop
  endfacet
  facet normal -0.751888 0.659291 0
    outer loop
      vertex -21.1479 -1.20208 -1
      vertex -21.0013 -1.03489 4
      vertex -21.0013 -1.03489 -1
    endloop
  endfacet
  facet normal -0.751888 0.659291 0
    outer loop
      vertex -21.0013 -1.03489 4
      vertex -21.1479 -1.20208 -1
      vertex -21.1479 -1.20208 4
    endloop
  endfacet
  facet normal -0.195122 0.980779 0
    outer loop
      vertex -21.91 -1.64207 -1
      vertex -22.1281 -1.68546 4
      vertex -21.91 -1.64207 4
    endloop
  endfacet
  facet normal -0.195122 0.980779 0
    outer loop
      vertex -22.1281 -1.68546 4
      vertex -21.91 -1.64207 -1
      vertex -22.1281 -1.68546 -1
    endloop
  endfacet
  facet normal -0.555551 0.831483 0
    outer loop
      vertex -21.3151 -1.3487 -1
      vertex -21.5 -1.47224 4
      vertex -21.3151 -1.3487 4
    endloop
  endfacet
  facet normal -0.555551 0.831483 0
    outer loop
      vertex -21.5 -1.47224 4
      vertex -21.3151 -1.3487 -1
      vertex -21.5 -1.47224 -1
    endloop
  endfacet
  facet normal -0.831553 0.555445 0
    outer loop
      vertex -21.0013 -1.03489 -1
      vertex -20.8778 -0.849999 4
      vertex -20.8778 -0.849999 -1
    endloop
  endfacet
  facet normal -0.831553 0.555445 0
    outer loop
      vertex -20.8778 -0.849999 4
      vertex -21.0013 -1.03489 -1
      vertex -21.0013 -1.03489 4
    endloop
  endfacet
  facet normal -0.896787 0.442463 0
    outer loop
      vertex -20.8778 -0.849999 -1
      vertex -20.7794 -0.650561 4
      vertex -20.7794 -0.650561 -1
    endloop
  endfacet
  facet normal -0.896787 0.442463 0
    outer loop
      vertex -20.7794 -0.650561 4
      vertex -20.8778 -0.849999 -1
      vertex -20.8778 -0.849999 4
    endloop
  endfacet
  facet normal -0.946901 0.321526 0
    outer loop
      vertex -20.7794 -0.650561 -1
      vertex -20.7079 -0.439992 4
      vertex -20.7079 -0.439992 -1
    endloop
  endfacet
  facet normal -0.946901 0.321526 0
    outer loop
      vertex -20.7079 -0.439992 4
      vertex -20.7794 -0.650561 -1
      vertex -20.7794 -0.650561 4
    endloop
  endfacet
  facet normal 0.997872 -0.0652074 0
    outer loop
      vertex 20.65 0 4
      vertex 20.6645 0.221894 -1
      vertex 20.6645 0.221894 4
    endloop
  endfacet
  facet normal 0.997872 -0.0652074 0
    outer loop
      vertex 20.6645 0.221894 -1
      vertex 20.65 0 4
      vertex 20.65 0 -1
    endloop
  endfacet
  facet normal 0.659319 -0.751863 0
    outer loop
      vertex 21.1479 1.20208 -1
      vertex 21.3151 1.3487 4
      vertex 21.1479 1.20208 4
    endloop
  endfacet
  facet normal 0.659319 -0.751863 0
    outer loop
      vertex 21.3151 1.3487 4
      vertex 21.1479 1.20208 -1
      vertex 21.3151 1.3487 -1
    endloop
  endfacet
  facet normal 0.321403 -0.946943 0
    outer loop
      vertex 21.6994 1.57059 -1
      vertex 21.91 1.64207 4
      vertex 21.6994 1.57059 4
    endloop
  endfacet
  facet normal 0.321403 -0.946943 0
    outer loop
      vertex 21.91 1.64207 4
      vertex 21.6994 1.57059 -1
      vertex 21.91 1.64207 -1
    endloop
  endfacet
  facet normal 0.98077 0.195167 0
    outer loop
      vertex 20.7079 -0.439992 4
      vertex 20.6645 -0.221894 -1
      vertex 20.6645 -0.221894 4
    endloop
  endfacet
  facet normal 0.98077 0.195167 0
    outer loop
      vertex 20.6645 -0.221894 -1
      vertex 20.7079 -0.439992 4
      vertex 20.7079 -0.439992 -1
    endloop
  endfacet
  facet normal 0.896787 -0.442463 0
    outer loop
      vertex 20.7794 0.650561 4
      vertex 20.8778 0.849999 -1
      vertex 20.8778 0.849999 4
    endloop
  endfacet
  facet normal 0.896787 -0.442463 0
    outer loop
      vertex 20.8778 0.849999 -1
      vertex 20.7794 0.650561 4
      vertex 20.7794 0.650561 -1
    endloop
  endfacet
  facet normal 0.831553 -0.555445 0
    outer loop
      vertex 20.8778 0.849999 4
      vertex 21.0013 1.03489 -1
      vertex 21.0013 1.03489 4
    endloop
  endfacet
  facet normal 0.831553 -0.555445 0
    outer loop
      vertex 21.0013 1.03489 -1
      vertex 20.8778 0.849999 4
      vertex 20.8778 0.849999 -1
    endloop
  endfacet
  facet normal 0 0 -1
    outer loop
      vertex 22.1281 -1.68546 4
      vertex 22.35 1.7 4
      vertex 22.35 -1.7 4
    endloop
  endfacet
  facet normal 0 0 -1
    outer loop
      vertex 22.1281 -1.68546 4
      vertex 22.1281 1.68546 4
      vertex 22.35 1.7 4
    endloop
  endfacet
  facet normal 0 0 -1
    outer loop
      vertex 21.91 -1.64207 4
      vertex 22.1281 1.68546 4
      vertex 22.1281 -1.68546 4
    endloop
  endfacet
  facet normal 0 0 -1
    outer loop
      vertex 21.91 -1.64207 4
      vertex 21.91 1.64207 4
      vertex 22.1281 1.68546 4
    endloop
  endfacet
  facet normal 0 0 -1
    outer loop
      vertex 21.6994 -1.57059 4
      vertex 21.91 1.64207 4
      vertex 21.91 -1.64207 4
    endloop
  endfacet
  facet normal 0 0 -1
    outer loop
      vertex 21.6994 -1.57059 4
      vertex 21.6994 1.57059 4
      vertex 21.91 1.64207 4
    endloop
  endfacet
  facet normal 0 0 -1
    outer loop
      vertex 21.5 -1.47224 4
      vertex 21.6994 1.57059 4
      vertex 21.6994 -1.57059 4
    endloop
  endfacet
  facet normal 0 0 -1
    outer loop
      vertex 21.5 -1.47224 4
      vertex 21.5 1.47224 4
      vertex 21.6994 1.57059 4
    endloop
  endfacet
  facet normal 0 0 -1
    outer loop
      vertex 21.3151 -1.3487 4
      vertex 21.5 1.47224 4
      vertex 21.5 -1.47224 4
    endloop
  endfacet
  facet normal 0 0 -1
    outer loop
      vertex 21.3151 -1.3487 4
      vertex 21.3151 1.3487 4
      vertex 21.5 1.47224 4
    endloop
  endfacet
  facet normal 0 0 -1
    outer loop
      vertex 21.1479 -1.20208 4
      vertex 21.3151 1.3487 4
      vertex 21.3151 -1.3487 4
    endloop
  endfacet
  facet normal 0 0 -1
    outer loop
      vertex 21.1479 -1.20208 4
      vertex 21.1479 1.20208 4
      vertex 21.3151 1.3487 4
    endloop
  endfacet
  facet normal 0 0 -1
    outer loop
      vertex 21.0013 -1.03489 4
      vertex 21.1479 1.20208 4
      vertex 21.1479 -1.20208 4
    endloop
  endfacet
  facet normal 0 0 -1
    outer loop
      vertex 21.0013 -1.03489 4
      vertex 21.0013 1.03489 4
      vertex 21.1479 1.20208 4
    endloop
  endfacet
  facet normal 0 0 -1
    outer loop
      vertex 20.8778 -0.849999 4
      vertex 21.0013 1.03489 4
      vertex 21.0013 -1.03489 4
    endloop
  endfacet
  facet normal 0 0 -1
    outer loop
      vertex 20.8778 -0.849999 4
      vertex 20.8778 0.849999 4
      vertex 21.0013 1.03489 4
    endloop
  endfacet
  facet normal 0 0 -1
    outer loop
      vertex 20.7794 -0.650561 4
      vertex 20.8778 0.849999 4
      vertex 20.8778 -0.849999 4
    endloop
  endfacet
  facet normal 0 0 -1
    outer loop
      vertex 20.7794 -0.650561 4
      vertex 20.7794 0.650561 4
      vertex 20.8778 0.849999 4
    endloop
  endfacet
  facet normal 0 0 -1
    outer loop
      vertex 20.7079 -0.439992 4
      vertex 20.7794 0.650561 4
      vertex 20.7794 -0.650561 4
    endloop
  endfacet
  facet normal 0 0 -1
    outer loop
      vertex 20.7079 -0.439992 4
      vertex 20.7079 0.439992 4
      vertex 20.7794 0.650561 4
    endloop
  endfacet
  facet normal 0 0 -1
    outer loop
      vertex 20.6645 -0.221894 4
      vertex 20.7079 0.439992 4
      vertex 20.7079 -0.439992 4
    endloop
  endfacet
  facet normal 0 0 -1
    outer loop
      vertex 20.6645 -0.221894 4
      vertex 20.6645 0.221894 4
      vertex 20.7079 0.439992 4
    endloop
  endfacet
  facet normal 0 -0 -1
    outer loop
      vertex 20.6645 0.221894 4
      vertex 20.6645 -0.221894 4
      vertex 20.65 0 4
    endloop
  endfacet
  facet normal 0.555551 -0.831483 0
    outer loop
      vertex 21.3151 1.3487 -1
      vertex 21.5 1.47224 4
      vertex 21.3151 1.3487 4
    endloop
  endfacet
  facet normal 0.555551 -0.831483 0
    outer loop
      vertex 21.5 1.47224 4
      vertex 21.3151 1.3487 -1
      vertex 21.5 1.47224 -1
    endloop
  endfacet
  facet normal 0.195122 -0.980779 0
    outer loop
      vertex 21.91 1.64207 -1
      vertex 22.1281 1.68546 4
      vertex 21.91 1.64207 4
    endloop
  endfacet
  facet normal 0.195122 -0.980779 0
    outer loop
      vertex 22.1281 1.68546 4
      vertex 21.91 1.64207 -1
      vertex 22.1281 1.68546 -1
    endloop
  endfacet
  facet normal 0.442349 0.896843 -0
    outer loop
      vertex 21.6994 -1.57059 -1
      vertex 21.5 -1.47224 4
      vertex 21.6994 -1.57059 4
    endloop
  endfacet
  facet normal 0.442349 0.896843 0
    outer loop
      vertex 21.5 -1.47224 4
      vertex 21.6994 -1.57059 -1
      vertex 21.5 -1.47224 -1
    endloop
  endfacet
  facet normal 0.659319 0.751863 -0
    outer loop
      vertex 21.3151 -1.3487 -1
      vertex 21.1479 -1.20208 4
      vertex 21.3151 -1.3487 4
    endloop
  endfacet
  facet normal 0.659319 0.751863 0
    outer loop
      vertex 21.1479 -1.20208 4
      vertex 21.3151 -1.3487 -1
      vertex 21.1479 -1.20208 -1
    endloop
  endfacet
  facet normal 0.321403 0.946943 -0
    outer loop
      vertex 21.91 -1.64207 -1
      vertex 21.6994 -1.57059 4
      vertex 21.91 -1.64207 4
    endloop
  endfacet
  facet normal 0.321403 0.946943 0
    outer loop
      vertex 21.6994 -1.57059 4
      vertex 21.91 -1.64207 -1
      vertex 21.6994 -1.57059 -1
    endloop
  endfacet
  facet normal 0.896787 0.442463 0
    outer loop
      vertex 20.8778 -0.849999 4
      vertex 20.7794 -0.650561 -1
      vertex 20.7794 -0.650561 4
    endloop
  endfacet
  facet normal 0.896787 0.442463 0
    outer loop
      vertex 20.7794 -0.650561 -1
      vertex 20.8778 -0.849999 4
      vertex 20.8778 -0.849999 -1
    endloop
  endfacet
  facet normal 0.831553 0.555445 0
    outer loop
      vertex 21.0013 -1.03489 4
      vertex 20.8778 -0.849999 -1
      vertex 20.8778 -0.849999 4
    endloop
  endfacet
  facet normal 0.831553 0.555445 0
    outer loop
      vertex 20.8778 -0.849999 -1
      vertex 21.0013 -1.03489 4
      vertex 21.0013 -1.03489 -1
    endloop
  endfacet
  facet normal 0.997872 0.0652074 0
    outer loop
      vertex 20.6645 -0.221894 4
      vertex 20.65 0 -1
      vertex 20.65 0 4
    endloop
  endfacet
  facet normal 0.997872 0.0652074 0
    outer loop
      vertex 20.65 0 -1
      vertex 20.6645 -0.221894 4
      vertex 20.6645 -0.221894 -1
    endloop
  endfacet
  facet normal 0.98077 -0.195167 0
    outer loop
      vertex 20.6645 0.221894 4
      vertex 20.7079 0.439992 -1
      vertex 20.7079 0.439992 4
    endloop
  endfacet
  facet normal 0.98077 -0.195167 0
    outer loop
      vertex 20.7079 0.439992 -1
      vertex 20.6645 0.221894 4
      vertex 20.6645 0.221894 -1
    endloop
  endfacet
  facet normal 0.0653848 -0.99786 0
    outer loop
      vertex 22.1281 1.68546 -1
      vertex 22.35 1.7 4
      vertex 22.1281 1.68546 4
    endloop
  endfacet
  facet normal 0.0653848 -0.99786 0
    outer loop
      vertex 22.35 1.7 4
      vertex 22.1281 1.68546 -1
      vertex 22.35 1.7 -1
    endloop
  endfacet
  facet normal 0.555551 0.831483 -0
    outer loop
      vertex 21.5 -1.47224 -1
      vertex 21.3151 -1.3487 4
      vertex 21.5 -1.47224 4
    endloop
  endfacet
  facet normal 0.555551 0.831483 0
    outer loop
      vertex 21.3151 -1.3487 4
      vertex 21.5 -1.47224 -1
      vertex 21.3151 -1.3487 -1
    endloop
  endfacet
  facet normal 0.195122 0.980779 -0
    outer loop
      vertex 22.1281 -1.68546 -1
      vertex 21.91 -1.64207 4
      vertex 22.1281 -1.68546 4
    endloop
  endfacet
  facet normal 0.195122 0.980779 0
    outer loop
      vertex 21.91 -1.64207 4
      vertex 22.1281 -1.68546 -1
      vertex 21.91 -1.64207 -1
    endloop
  endfacet
  facet normal 0.751888 0.659291 0
    outer loop
      vertex 21.1479 -1.20208 4
      vertex 21.0013 -1.03489 -1
      vertex 21.0013 -1.03489 4
    endloop
  endfacet
  facet normal 0.751888 0.659291 0
    outer loop
      vertex 21.0013 -1.03489 -1
      vertex 21.1479 -1.20208 4
      vertex 21.1479 -1.20208 -1
    endloop
  endfacet
  facet normal 0.751888 -0.659291 0
    outer loop
      vertex 21.0013 1.03489 4
      vertex 21.1479 1.20208 -1
      vertex 21.1479 1.20208 4
    endloop
  endfacet
  facet normal 0.751888 -0.659291 0
    outer loop
      vertex 21.1479 1.20208 -1
      vertex 21.0013 1.03489 4
      vertex 21.0013 1.03489 -1
    endloop
  endfacet
  facet normal 0.946901 -0.321526 0
    outer loop
      vertex 20.7079 0.439992 4
      vertex 20.7794 0.650561 -1
      vertex 20.7794 0.650561 4
    endloop
  endfacet
  facet normal 0.946901 -0.321526 0
    outer loop
      vertex 20.7794 0.650561 -1
      vertex 20.7079 0.439992 4
      vertex 20.7079 0.439992 -1
    endloop
  endfacet
  facet normal 0.442349 -0.896843 0
    outer loop
      vertex 21.5 1.47224 -1
      vertex 21.6994 1.57059 4
      vertex 21.5 1.47224 4
    endloop
  endfacet
  facet normal 0.442349 -0.896843 0
    outer loop
      vertex 21.6994 1.57059 4
      vertex 21.5 1.47224 -1
      vertex 21.6994 1.57059 -1
    endloop
  endfacet
  facet normal 0.0653848 0.99786 -0
    outer loop
      vertex 22.35 -1.7 -1
      vertex 22.1281 -1.68546 4
      vertex 22.35 -1.7 4
    endloop
  endfacet
  facet normal 0.0653848 0.99786 0
    outer loop
      vertex 22.1281 -1.68546 4
      vertex 22.35 -1.7 -1
      vertex 22.1281 -1.68546 -1
    endloop
  endfacet
  facet normal 0.946901 0.321526 0
    outer loop
      vertex 20.7794 -0.650561 4
      vertex 20.7079 -0.439992 -1
      vertex 20.7079 -0.439992 4
    endloop
  endfacet
  facet normal 0.946901 0.321526 0
    outer loop
      vertex 20.7079 -0.439992 -1
      vertex 20.7794 -0.650561 4
      vertex 20.7794 -0.650561 -1
    endloop
  endfacet
endsolid OpenSCAD_Model
